<svg width="60" height="60" viewBox="0 0 60 60" fill="none" xmlns="http://www.w3.org/2000/svg">
<circle cx="30" cy="30" r="30" fill="white"/>
<path d="M30 10.25C18.9554 10.25 10 19.2054 10 30.25C10 41.2946 18.9554 50.25 30 50.25C41.0446 50.25 50 41.2946 50 30.25C50 19.2054 41.0446 10.25 30 10.25ZM36.433 30.558L26.683 37.6518C26.6296 37.6902 26.5666 37.7131 26.5009 37.7181C26.4353 37.723 26.3696 37.7097 26.311 37.6797C26.2524 37.6498 26.2032 37.6042 26.1688 37.5481C26.1344 37.4919 26.1162 37.4274 26.1161 37.3616V23.183C26.1159 23.1171 26.1339 23.0524 26.1682 22.996C26.2025 22.9397 26.2518 22.894 26.3105 22.8639C26.3692 22.8339 26.4351 22.8207 26.5008 22.8258C26.5666 22.8309 26.6297 22.8541 26.683 22.8929L36.433 29.9821C36.4791 30.0147 36.5167 30.0579 36.5426 30.108C36.5685 30.1581 36.5821 30.2137 36.5821 30.2701C36.5821 30.3265 36.5685 30.3821 36.5426 30.4322C36.5167 30.4823 36.4791 30.5255 36.433 30.558Z" fill="#9694E7"/>
</svg>
